<?xml version="1.0" encoding="UTF-8" standalone="no"?>
<!DOCTYPE svg PUBLIC "-//W3C//DTD SVG 1.1//EN"
 "http://www.w3.org/Graphics/SVG/1.1/DTD/svg11.dtd">
<!-- Generated by graphviz version 2.40.1 (20161225.0304)
 -->
<!-- Title: UmlClassDiagram Pages: 1 -->
<svg width="4431pt" height="1285pt"
 viewBox="0.00 0.00 4430.54 1285.00" xmlns="http://www.w3.org/2000/svg" xmlns:xlink="http://www.w3.org/1999/xlink">
<g id="graph0" class="graph" transform="scale(1 1) rotate(0) translate(4 1281)">
<title>UmlClassDiagram</title>
<polygon fill="#ffffff" stroke="transparent" points="-4,4 -4,-1281 4426.5423,-1281 4426.5423,4 -4,4"/>
<!-- 0 -->
<g id="node1" class="node">
<title>0</title>
<polygon fill="#f2f2f2" stroke="#000000" points="640.7785,-67.7 640.7785,-158.9 1009.0157,-158.9 1009.0157,-67.7 640.7785,-67.7"/>
<text text-anchor="middle" x="824.8971" y="-142.3" font-family="Times,serif" font-size="14.00" fill="#000000">AirdropVault</text>
<polyline fill="none" stroke="#000000" points="640.7785,-134.1 1009.0157,-134.1 "/>
<text text-anchor="middle" x="824.8971" y="-117.5" font-family="Times,serif" font-size="14.00" fill="#000000"> </text>
<polyline fill="none" stroke="#000000" points="640.7785,-109.3 1009.0157,-109.3 "/>
<text text-anchor="start" x="648.7785" y="-92.7" font-family="Times,serif" font-size="14.00" fill="#000000">Public:</text>
<text text-anchor="start" x="648.7785" y="-75.9" font-family="Times,serif" font-size="14.00" fill="#000000"> &#160;&#160;&#160;constructor(_tosAddress: address, _maxInputOnce: uint256)</text>
</g>
<!-- 21 -->
<g id="node24" class="node">
<title>21</title>
<polygon fill="#f2f2f2" stroke="#000000" points="464.2161,-288.3 464.2161,-497.1 1185.5781,-497.1 1185.5781,-288.3 464.2161,-288.3"/>
<text text-anchor="middle" x="824.8971" y="-480.5" font-family="Times,serif" font-size="14.00" fill="#000000">WhitelistVault</text>
<polyline fill="none" stroke="#000000" points="464.2161,-472.3 1185.5781,-472.3 "/>
<text text-anchor="middle" x="824.8971" y="-455.7" font-family="Times,serif" font-size="14.00" fill="#000000"> </text>
<polyline fill="none" stroke="#000000" points="464.2161,-447.5 1185.5781,-447.5 "/>
<text text-anchor="start" x="472.2161" y="-430.9" font-family="Times,serif" font-size="14.00" fill="#000000">External:</text>
<text text-anchor="start" x="472.2161" y="-414.1" font-family="Times,serif" font-size="14.00" fill="#000000"> &#160;&#160;&#160;initialize(_totalAllocatedAmount: uint256, _totalTgeCount: uint256, _startTime: uint256, _periodTimesPerCliam: uint256)</text>
<text text-anchor="start" x="472.2161" y="-397.3" font-family="Times,serif" font-size="14.00" fill="#000000"> &#160;&#160;&#160;allocateAmount(round: uint256, amount: uint256)</text>
<text text-anchor="start" x="472.2161" y="-380.5" font-family="Times,serif" font-size="14.00" fill="#000000"> &#160;&#160;&#160;startRound(round: uint256)</text>
<text text-anchor="start" x="472.2161" y="-363.7" font-family="Times,serif" font-size="14.00" fill="#000000"> &#160;&#160;&#160;startRoundTime(round: uint256): (start: uint256)</text>
<text text-anchor="start" x="472.2161" y="-346.9" font-family="Times,serif" font-size="14.00" fill="#000000"> &#160;&#160;&#160;unclaimedInfos(): (count: uint256, amount: uint256)</text>
<text text-anchor="start" x="472.2161" y="-330.1" font-family="Times,serif" font-size="14.00" fill="#000000"> &#160;&#160;&#160;claim()</text>
<text text-anchor="start" x="472.2161" y="-313.3" font-family="Times,serif" font-size="14.00" fill="#000000">Public:</text>
<text text-anchor="start" x="472.2161" y="-296.5" font-family="Times,serif" font-size="14.00" fill="#000000"> &#160;&#160;&#160;constructor(_name: string, _token: address, _inputMaxOnce: uint256)</text>
</g>
<!-- 0&#45;&gt;21 -->
<g id="edge3" class="edge">
<title>0&#45;&gt;21</title>
<path fill="none" stroke="#000000" d="M824.8971,-159.1244C824.8971,-186.3905 824.8971,-222.5365 824.8971,-258.2269"/>
<polygon fill="none" stroke="#000000" points="814.3972,-258.2287 824.8971,-288.2287 835.3972,-258.2288 814.3972,-258.2287"/>
</g>
<!-- 1 -->
<g id="node2" class="node">
<title>1</title>
<polygon fill="#f2f2f2" stroke="#000000" points="1058.7785,-67.7 1058.7785,-158.9 1427.0157,-158.9 1427.0157,-67.7 1058.7785,-67.7"/>
<text text-anchor="middle" x="1242.8971" y="-142.3" font-family="Times,serif" font-size="14.00" fill="#000000">InitialContributorVault</text>
<polyline fill="none" stroke="#000000" points="1058.7785,-134.1 1427.0157,-134.1 "/>
<text text-anchor="middle" x="1242.8971" y="-117.5" font-family="Times,serif" font-size="14.00" fill="#000000"> </text>
<polyline fill="none" stroke="#000000" points="1058.7785,-109.3 1427.0157,-109.3 "/>
<text text-anchor="start" x="1066.7785" y="-92.7" font-family="Times,serif" font-size="14.00" fill="#000000">Public:</text>
<text text-anchor="start" x="1066.7785" y="-75.9" font-family="Times,serif" font-size="14.00" fill="#000000"> &#160;&#160;&#160;constructor(_tosAddress: address, _maxInputOnce: uint256)</text>
</g>
<!-- 17 -->
<g id="node20" class="node">
<title>17</title>
<polygon fill="#f2f2f2" stroke="#000000" points="1203.8532,-263.1 1203.8532,-522.3 2053.941,-522.3 2053.941,-263.1 1203.8532,-263.1"/>
<text text-anchor="middle" x="1628.8971" y="-505.7" font-family="Times,serif" font-size="14.00" fill="#000000">DesignedVault</text>
<polyline fill="none" stroke="#000000" points="1203.8532,-497.5 2053.941,-497.5 "/>
<text text-anchor="middle" x="1628.8971" y="-480.9" font-family="Times,serif" font-size="14.00" fill="#000000"> </text>
<polyline fill="none" stroke="#000000" points="1203.8532,-472.7 2053.941,-472.7 "/>
<text text-anchor="start" x="1211.8532" y="-456.1" font-family="Times,serif" font-size="14.00" fill="#000000">External:</text>
<text text-anchor="start" x="1211.8532" y="-439.3" font-family="Times,serif" font-size="14.00" fill="#000000"> &#160;&#160;&#160;initialize(_totalAllocatedAmount: uint256, _totalClaims: uint256, _totalTgeCount: uint256, _startTime: uint256, _periodTimesPerCliam: uint256)</text>
<text text-anchor="start" x="1211.8532" y="-422.5" font-family="Times,serif" font-size="14.00" fill="#000000"> &#160;&#160;&#160;setClaimer(_newClaimer: address)</text>
<text text-anchor="start" x="1211.8532" y="-405.7" font-family="Times,serif" font-size="14.00" fill="#000000"> &#160;&#160;&#160;allocateAmount(round: uint256, amount: uint256)</text>
<text text-anchor="start" x="1211.8532" y="-388.9" font-family="Times,serif" font-size="14.00" fill="#000000"> &#160;&#160;&#160;startRound(round: uint256)</text>
<text text-anchor="start" x="1211.8532" y="-372.1" font-family="Times,serif" font-size="14.00" fill="#000000"> &#160;&#160;&#160;start()</text>
<text text-anchor="start" x="1211.8532" y="-355.3" font-family="Times,serif" font-size="14.00" fill="#000000"> &#160;&#160;&#160;nextClaimStartTime(): (nextTime: uint256)</text>
<text text-anchor="start" x="1211.8532" y="-338.5" font-family="Times,serif" font-size="14.00" fill="#000000"> &#160;&#160;&#160;nextClaimRound(): (nextRound: uint256)</text>
<text text-anchor="start" x="1211.8532" y="-321.7" font-family="Times,serif" font-size="14.00" fill="#000000"> &#160;&#160;&#160;unclaimedInfos(): (count: uint256, amount: uint256)</text>
<text text-anchor="start" x="1211.8532" y="-304.9" font-family="Times,serif" font-size="14.00" fill="#000000"> &#160;&#160;&#160;claim()</text>
<text text-anchor="start" x="1211.8532" y="-288.1" font-family="Times,serif" font-size="14.00" fill="#000000">Public:</text>
<text text-anchor="start" x="1211.8532" y="-271.3" font-family="Times,serif" font-size="14.00" fill="#000000"> &#160;&#160;&#160;constructor(_name: string, _token: address, _inputMaxOnce: uint256)</text>
</g>
<!-- 1&#45;&gt;17 -->
<g id="edge4" class="edge">
<title>1&#45;&gt;17</title>
<path fill="none" stroke="#000000" d="M1306.2049,-159.1244C1339.3331,-183.1037 1381.9497,-213.9511 1425.2821,-245.3165"/>
<polygon fill="none" stroke="#000000" points="1419.2723,-253.9284 1449.7307,-263.0133 1431.5856,-236.9171 1419.2723,-253.9284"/>
</g>
<!-- 2 -->
<g id="node3" class="node">
<title>2</title>
<polygon fill="#f2f2f2" stroke="#000000" points="1444.7785,-67.7 1444.7785,-158.9 1813.0157,-158.9 1813.0157,-67.7 1444.7785,-67.7"/>
<text text-anchor="middle" x="1628.8971" y="-142.3" font-family="Times,serif" font-size="14.00" fill="#000000">LiquidityVault</text>
<polyline fill="none" stroke="#000000" points="1444.7785,-134.1 1813.0157,-134.1 "/>
<text text-anchor="middle" x="1628.8971" y="-117.5" font-family="Times,serif" font-size="14.00" fill="#000000"> </text>
<polyline fill="none" stroke="#000000" points="1444.7785,-109.3 1813.0157,-109.3 "/>
<text text-anchor="start" x="1452.7785" y="-92.7" font-family="Times,serif" font-size="14.00" fill="#000000">Public:</text>
<text text-anchor="start" x="1452.7785" y="-75.9" font-family="Times,serif" font-size="14.00" fill="#000000"> &#160;&#160;&#160;constructor(_tosAddress: address, _maxInputOnce: uint256)</text>
</g>
<!-- 2&#45;&gt;17 -->
<g id="edge5" class="edge">
<title>2&#45;&gt;17</title>
<path fill="none" stroke="#000000" d="M1628.8971,-159.1244C1628.8971,-179.9324 1628.8971,-205.912 1628.8971,-232.9141"/>
<polygon fill="none" stroke="#000000" points="1618.3972,-233.0132 1628.8971,-263.0133 1639.3972,-233.0133 1618.3972,-233.0132"/>
</g>
<!-- 3 -->
<g id="node4" class="node">
<title>3</title>
<polygon fill="#f2f2f2" stroke="#000000" points="1830.7785,-67.7 1830.7785,-158.9 2199.0157,-158.9 2199.0157,-67.7 1830.7785,-67.7"/>
<text text-anchor="middle" x="2014.8971" y="-142.3" font-family="Times,serif" font-size="14.00" fill="#000000">MarketingVault</text>
<polyline fill="none" stroke="#000000" points="1830.7785,-134.1 2199.0157,-134.1 "/>
<text text-anchor="middle" x="2014.8971" y="-117.5" font-family="Times,serif" font-size="14.00" fill="#000000"> </text>
<polyline fill="none" stroke="#000000" points="1830.7785,-109.3 2199.0157,-109.3 "/>
<text text-anchor="start" x="1838.7785" y="-92.7" font-family="Times,serif" font-size="14.00" fill="#000000">Public:</text>
<text text-anchor="start" x="1838.7785" y="-75.9" font-family="Times,serif" font-size="14.00" fill="#000000"> &#160;&#160;&#160;constructor(_tosAddress: address, _maxInputOnce: uint256)</text>
</g>
<!-- 3&#45;&gt;17 -->
<g id="edge6" class="edge">
<title>3&#45;&gt;17</title>
<path fill="none" stroke="#000000" d="M1951.5893,-159.1244C1918.4611,-183.1037 1875.8444,-213.9511 1832.512,-245.3165"/>
<polygon fill="none" stroke="#000000" points="1826.2086,-236.9171 1808.0634,-263.0133 1838.5219,-253.9284 1826.2086,-236.9171"/>
</g>
<!-- 4 -->
<g id="node5" class="node">
<title>4</title>
<polygon fill="#f2f2f2" stroke="#000000" points="1930.0149,-1151.7 1930.0149,-1276.5 2107.7793,-1276.5 2107.7793,-1151.7 1930.0149,-1151.7"/>
<text text-anchor="middle" x="2018.8971" y="-1259.9" font-family="Times,serif" font-size="14.00" fill="#000000">AccessRoleCommon</text>
<polyline fill="none" stroke="#000000" points="1930.0149,-1251.7 2107.7793,-1251.7 "/>
<text text-anchor="start" x="1938.0149" y="-1235.1" font-family="Times,serif" font-size="14.00" fill="#000000">Public:</text>
<text text-anchor="start" x="1938.0149" y="-1218.3" font-family="Times,serif" font-size="14.00" fill="#000000"> &#160;&#160;ADMIN_ROLE: bytes32</text>
<text text-anchor="start" x="1938.0149" y="-1201.5" font-family="Times,serif" font-size="14.00" fill="#000000"> &#160;&#160;MINTER_ROLE: bytes32</text>
<text text-anchor="start" x="1938.0149" y="-1184.7" font-family="Times,serif" font-size="14.00" fill="#000000"> &#160;&#160;BURNER_ROLE: bytes32</text>
<polyline fill="none" stroke="#000000" points="1930.0149,-1176.5 2107.7793,-1176.5 "/>
<text text-anchor="middle" x="2018.8971" y="-1159.9" font-family="Times,serif" font-size="14.00" fill="#000000"> </text>
</g>
<!-- 5 -->
<g id="node6" class="node">
<title>5</title>
<polygon fill="#f2f2f2" stroke="#000000" points="1902.6302,-880.7 1902.6302,-1055.9 2135.164,-1055.9 2135.164,-880.7 1902.6302,-880.7"/>
<text text-anchor="middle" x="2018.8971" y="-1039.3" font-family="Times,serif" font-size="14.00" fill="#000000">AccessibleCommon</text>
<polyline fill="none" stroke="#000000" points="1902.6302,-1031.1 2135.164,-1031.1 "/>
<text text-anchor="middle" x="2018.8971" y="-1014.5" font-family="Times,serif" font-size="14.00" fill="#000000"> </text>
<polyline fill="none" stroke="#000000" points="1902.6302,-1006.3 2135.164,-1006.3 "/>
<text text-anchor="start" x="1910.6302" y="-989.7" font-family="Times,serif" font-size="14.00" fill="#000000">External:</text>
<text text-anchor="start" x="1910.6302" y="-972.9" font-family="Times,serif" font-size="14.00" fill="#000000"> &#160;&#160;&#160;transferAdmin(newAdmin: address)</text>
<text text-anchor="start" x="1910.6302" y="-956.1" font-family="Times,serif" font-size="14.00" fill="#000000">Public:</text>
<text text-anchor="start" x="1910.6302" y="-939.3" font-family="Times,serif" font-size="14.00" fill="#000000"> &#160;&#160;&#160;&lt;&lt;modifier&gt;&gt; onlyOwner()</text>
<text text-anchor="start" x="1910.6302" y="-922.5" font-family="Times,serif" font-size="14.00" fill="#000000"> &#160;&#160;&#160;addAdmin(account: address)</text>
<text text-anchor="start" x="1910.6302" y="-905.7" font-family="Times,serif" font-size="14.00" fill="#000000"> &#160;&#160;&#160;removeAdmin(account: address)</text>
<text text-anchor="start" x="1910.6302" y="-888.9" font-family="Times,serif" font-size="14.00" fill="#000000"> &#160;&#160;&#160;isAdmin(account: address): bool</text>
</g>
<!-- 5&#45;&gt;4 -->
<g id="edge7" class="edge">
<title>5&#45;&gt;4</title>
<path fill="none" stroke="#000000" d="M2018.8971,-1055.9984C2018.8971,-1077.2113 2018.8971,-1099.9521 2018.8971,-1121.3871"/>
<polygon fill="none" stroke="#000000" points="2008.3972,-1121.5272 2018.8971,-1151.5272 2029.3972,-1121.5273 2008.3972,-1121.5272"/>
</g>
<!-- 6 -->
<g id="node7" class="node">
<title>6</title>
<polygon fill="#f2f2f2" stroke="#000000" points="2216.3581,-567.7 2216.3581,-776.5 2429.4361,-776.5 2429.4361,-567.7 2216.3581,-567.7"/>
<text text-anchor="middle" x="2322.8971" y="-759.9" font-family="Times,serif" font-size="14.00" fill="#000000">AccessiblePlusCommon</text>
<polyline fill="none" stroke="#000000" points="2216.3581,-751.7 2429.4361,-751.7 "/>
<text text-anchor="middle" x="2322.8971" y="-735.1" font-family="Times,serif" font-size="14.00" fill="#000000"> </text>
<polyline fill="none" stroke="#000000" points="2216.3581,-726.9 2429.4361,-726.9 "/>
<text text-anchor="start" x="2224.3581" y="-710.3" font-family="Times,serif" font-size="14.00" fill="#000000">Public:</text>
<text text-anchor="start" x="2224.3581" y="-693.5" font-family="Times,serif" font-size="14.00" fill="#000000"> &#160;&#160;&#160;&lt;&lt;modifier&gt;&gt; onlyMinter()</text>
<text text-anchor="start" x="2224.3581" y="-676.7" font-family="Times,serif" font-size="14.00" fill="#000000"> &#160;&#160;&#160;&lt;&lt;modifier&gt;&gt; onlyBurner()</text>
<text text-anchor="start" x="2224.3581" y="-659.9" font-family="Times,serif" font-size="14.00" fill="#000000"> &#160;&#160;&#160;isMinter(account: address): bool</text>
<text text-anchor="start" x="2224.3581" y="-643.1" font-family="Times,serif" font-size="14.00" fill="#000000"> &#160;&#160;&#160;isBurner(account: address): bool</text>
<text text-anchor="start" x="2224.3581" y="-626.3" font-family="Times,serif" font-size="14.00" fill="#000000"> &#160;&#160;&#160;addMinter(account: address)</text>
<text text-anchor="start" x="2224.3581" y="-609.5" font-family="Times,serif" font-size="14.00" fill="#000000"> &#160;&#160;&#160;addBurner(account: address)</text>
<text text-anchor="start" x="2224.3581" y="-592.7" font-family="Times,serif" font-size="14.00" fill="#000000"> &#160;&#160;&#160;removeMinter(account: address)</text>
<text text-anchor="start" x="2224.3581" y="-575.9" font-family="Times,serif" font-size="14.00" fill="#000000"> &#160;&#160;&#160;removeBurner(account: address)</text>
</g>
<!-- 6&#45;&gt;5 -->
<g id="edge8" class="edge">
<title>6&#45;&gt;5</title>
<path fill="none" stroke="#000000" d="M2216.0845,-776.4419C2212.9885,-779.4614 2209.9208,-782.4525 2206.8971,-785.4 2182.3077,-809.3696 2155.8918,-835.0884 2130.8592,-859.4458"/>
<polygon fill="none" stroke="#000000" points="2123.4787,-851.9768 2109.2975,-880.4223 2138.1223,-867.0289 2123.4787,-851.9768"/>
</g>
<!-- 7 -->
<g id="node8" class="node">
<title>7</title>
<polygon fill="#f2f2f2" stroke="#000000" points="2447.5183,-567.7 2447.5183,-776.5 3272.2759,-776.5 3272.2759,-567.7 2447.5183,-567.7"/>
<text text-anchor="middle" x="2859.8971" y="-759.9" font-family="Times,serif" font-size="14.00" fill="#000000">&lt;&lt;Interface&gt;&gt;</text>
<text text-anchor="middle" x="2859.8971" y="-743.1" font-family="Times,serif" font-size="14.00" fill="#000000">ITOS</text>
<polyline fill="none" stroke="#000000" points="2447.5183,-734.9 3272.2759,-734.9 "/>
<text text-anchor="middle" x="2859.8971" y="-718.3" font-family="Times,serif" font-size="14.00" fill="#000000"> </text>
<polyline fill="none" stroke="#000000" points="2447.5183,-710.1 3272.2759,-710.1 "/>
<text text-anchor="start" x="2455.5183" y="-693.5" font-family="Times,serif" font-size="14.00" fill="#000000">External:</text>
<text text-anchor="start" x="2455.5183" y="-676.7" font-family="Times,serif" font-size="14.00" fill="#000000"> &#160;&#160;&#160;&#160;mint(to: address, amount: uint256): bool</text>
<text text-anchor="start" x="2455.5183" y="-659.9" font-family="Times,serif" font-size="14.00" fill="#000000"> &#160;&#160;&#160;&#160;burn(from: address, amount: uint256): bool</text>
<text text-anchor="start" x="2455.5183" y="-643.1" font-family="Times,serif" font-size="14.00" fill="#000000"> &#160;&#160;&#160;&#160;DOMAIN_SEPARATOR(): bytes32</text>
<text text-anchor="start" x="2455.5183" y="-626.3" font-family="Times,serif" font-size="14.00" fill="#000000"> &#160;&#160;&#160;&#160;nonces(owner: address): uint256</text>
<text text-anchor="start" x="2455.5183" y="-609.5" font-family="Times,serif" font-size="14.00" fill="#000000"> &#160;&#160;&#160;&#160;permit(owner: address, spender: address, value: uint256, deadline: uint256, v: uint8, r: bytes32, s: bytes32)</text>
<text text-anchor="start" x="2455.5183" y="-592.7" font-family="Times,serif" font-size="14.00" fill="#000000"> &#160;&#160;&#160;&#160;verify(owner: address, spender: address, value: uint256, deadline: uint256, _nounce: uint256, sigR: bytes32, sigS: bytes32, sigV: uint8): bool</text>
<text text-anchor="start" x="2455.5183" y="-575.9" font-family="Times,serif" font-size="14.00" fill="#000000"> &#160;&#160;&#160;&#160;hashPermit(owner: address, spender: address, value: uint256, deadline: uint256, _nounce: uint256): bytes32</text>
</g>
<!-- 8 -->
<g id="node9" class="node">
<title>8</title>
<polygon fill="#f2f2f2" stroke="#000000" points="3285.4856,-296.7 3285.4856,-488.7 3572.3086,-488.7 3572.3086,-296.7 3285.4856,-296.7"/>
<text text-anchor="middle" x="3428.8971" y="-472.1" font-family="Times,serif" font-size="14.00" fill="#000000">&lt;&lt;Abstract&gt;&gt;</text>
<text text-anchor="middle" x="3428.8971" y="-455.3" font-family="Times,serif" font-size="14.00" fill="#000000">ERC165</text>
<polyline fill="none" stroke="#000000" points="3285.4856,-447.1 3572.3086,-447.1 "/>
<text text-anchor="start" x="3293.4856" y="-430.5" font-family="Times,serif" font-size="14.00" fill="#000000">Private:</text>
<text text-anchor="start" x="3293.4856" y="-413.7" font-family="Times,serif" font-size="14.00" fill="#000000"> &#160;&#160;_INTERFACE_ID_ERC165: bytes4</text>
<text text-anchor="start" x="3293.4856" y="-396.9" font-family="Times,serif" font-size="14.00" fill="#000000"> &#160;&#160;_supportedInterfaces: mapping(bytes4=&gt;bool)</text>
<polyline fill="none" stroke="#000000" points="3285.4856,-388.7 3572.3086,-388.7 "/>
<text text-anchor="start" x="3293.4856" y="-372.1" font-family="Times,serif" font-size="14.00" fill="#000000">Internal:</text>
<text text-anchor="start" x="3293.4856" y="-355.3" font-family="Times,serif" font-size="14.00" fill="#000000"> &#160;&#160;&#160;_registerInterface(interfaceId: bytes4)</text>
<text text-anchor="start" x="3293.4856" y="-338.5" font-family="Times,serif" font-size="14.00" fill="#000000">Public:</text>
<text text-anchor="start" x="3293.4856" y="-321.7" font-family="Times,serif" font-size="14.00" fill="#000000"> &#160;&#160;&#160;constructor()</text>
<text text-anchor="start" x="3293.4856" y="-304.9" font-family="Times,serif" font-size="14.00" fill="#000000"> &#160;&#160;&#160;supportsInterface(interfaceId: bytes4): bool</text>
</g>
<!-- 10 -->
<g id="node11" class="node">
<title>10</title>
<polygon fill="#f2f2f2" stroke="#000000" points="3290.4794,-618.1 3290.4794,-726.1 3567.3148,-726.1 3567.3148,-618.1 3290.4794,-618.1"/>
<text text-anchor="middle" x="3428.8971" y="-709.5" font-family="Times,serif" font-size="14.00" fill="#000000">&lt;&lt;Interface&gt;&gt;</text>
<text text-anchor="middle" x="3428.8971" y="-692.7" font-family="Times,serif" font-size="14.00" fill="#000000">IERC165</text>
<polyline fill="none" stroke="#000000" points="3290.4794,-684.5 3567.3148,-684.5 "/>
<text text-anchor="middle" x="3428.8971" y="-667.9" font-family="Times,serif" font-size="14.00" fill="#000000"> </text>
<polyline fill="none" stroke="#000000" points="3290.4794,-659.7 3567.3148,-659.7 "/>
<text text-anchor="start" x="3298.4794" y="-643.1" font-family="Times,serif" font-size="14.00" fill="#000000">External:</text>
<text text-anchor="start" x="3298.4794" y="-626.3" font-family="Times,serif" font-size="14.00" fill="#000000"> &#160;&#160;&#160;&#160;supportsInterface(interfaceId: bytes4): bool</text>
</g>
<!-- 8&#45;&gt;10 -->
<g id="edge9" class="edge">
<title>8&#45;&gt;10</title>
<path fill="none" stroke="#000000" stroke-dasharray="5,2" d="M3428.8971,-488.8536C3428.8971,-521.0056 3428.8971,-556.5768 3428.8971,-587.7585"/>
<polygon fill="none" stroke="#000000" points="3418.3972,-587.7602 3428.8971,-617.7602 3439.3972,-587.7602 3418.3972,-587.7602"/>
</g>
<!-- 9 -->
<g id="node10" class="node">
<title>9</title>
<polygon fill="#f2f2f2" stroke="#000000" points="3746.7844,-.5 3746.7844,-226.1 4239.0098,-226.1 4239.0098,-.5 3746.7844,-.5"/>
<text text-anchor="middle" x="3992.8971" y="-209.5" font-family="Times,serif" font-size="14.00" fill="#000000">&lt;&lt;Library&gt;&gt;</text>
<text text-anchor="middle" x="3992.8971" y="-192.7" font-family="Times,serif" font-size="14.00" fill="#000000">ERC165Checker</text>
<polyline fill="none" stroke="#000000" points="3746.7844,-184.5 4239.0098,-184.5 "/>
<text text-anchor="start" x="3754.7844" y="-167.9" font-family="Times,serif" font-size="14.00" fill="#000000">Private:</text>
<text text-anchor="start" x="3754.7844" y="-151.1" font-family="Times,serif" font-size="14.00" fill="#000000"> &#160;&#160;_INTERFACE_ID_INVALID: bytes4</text>
<text text-anchor="start" x="3754.7844" y="-134.3" font-family="Times,serif" font-size="14.00" fill="#000000"> &#160;&#160;_INTERFACE_ID_ERC165: bytes4</text>
<polyline fill="none" stroke="#000000" points="3746.7844,-126.1 4239.0098,-126.1 "/>
<text text-anchor="start" x="3754.7844" y="-109.5" font-family="Times,serif" font-size="14.00" fill="#000000">Private:</text>
<text text-anchor="start" x="3754.7844" y="-92.7" font-family="Times,serif" font-size="14.00" fill="#000000"> &#160;&#160;&#160;_supportsERC165Interface(account: address, interfaceId: bytes4): bool</text>
<text text-anchor="start" x="3754.7844" y="-75.9" font-family="Times,serif" font-size="14.00" fill="#000000"> &#160;&#160;&#160;_callERC165SupportsInterface(account: address, interfaceId: bytes4): (bool, bool)</text>
<text text-anchor="start" x="3754.7844" y="-59.1" font-family="Times,serif" font-size="14.00" fill="#000000">Internal:</text>
<text text-anchor="start" x="3754.7844" y="-42.3" font-family="Times,serif" font-size="14.00" fill="#000000"> &#160;&#160;&#160;supportsERC165(account: address): bool</text>
<text text-anchor="start" x="3754.7844" y="-25.5" font-family="Times,serif" font-size="14.00" fill="#000000"> &#160;&#160;&#160;supportsInterface(account: address, interfaceId: bytes4): bool</text>
<text text-anchor="start" x="3754.7844" y="-8.7" font-family="Times,serif" font-size="14.00" fill="#000000"> &#160;&#160;&#160;supportsAllInterfaces(account: address, interfaceIds: bytes4[]): bool</text>
</g>
<!-- 11 -->
<g id="node12" class="node">
<title>11</title>
<polygon fill="#f2f2f2" stroke="#000000" points="4257.2519,-59.3 4257.2519,-167.3 4422.5423,-167.3 4422.5423,-59.3 4257.2519,-59.3"/>
<text text-anchor="middle" x="4339.8971" y="-150.7" font-family="Times,serif" font-size="14.00" fill="#000000">&lt;&lt;Library&gt;&gt;</text>
<text text-anchor="middle" x="4339.8971" y="-133.9" font-family="Times,serif" font-size="14.00" fill="#000000">ChainId</text>
<polyline fill="none" stroke="#000000" points="4257.2519,-125.7 4422.5423,-125.7 "/>
<text text-anchor="middle" x="4339.8971" y="-109.1" font-family="Times,serif" font-size="14.00" fill="#000000"> </text>
<polyline fill="none" stroke="#000000" points="4257.2519,-100.9 4422.5423,-100.9 "/>
<text text-anchor="start" x="4265.2519" y="-84.3" font-family="Times,serif" font-size="14.00" fill="#000000">Internal:</text>
<text text-anchor="start" x="4265.2519" y="-67.5" font-family="Times,serif" font-size="14.00" fill="#000000"> &#160;&#160;&#160;get(): (chainId: uint256)</text>
</g>
<!-- 12 -->
<g id="node13" class="node">
<title>12</title>
<polygon fill="#f2f2f2" stroke="#000000" points="301.5128,-922.7 301.5128,-1013.9 402.2814,-1013.9 402.2814,-922.7 301.5128,-922.7"/>
<text text-anchor="middle" x="351.8971" y="-997.3" font-family="Times,serif" font-size="14.00" fill="#000000">&lt;&lt;Library&gt;&gt;</text>
<text text-anchor="middle" x="351.8971" y="-980.5" font-family="Times,serif" font-size="14.00" fill="#000000">ClaimVaultLib</text>
<polyline fill="none" stroke="#000000" points="301.5128,-972.3 402.2814,-972.3 "/>
<text text-anchor="middle" x="351.8971" y="-955.7" font-family="Times,serif" font-size="14.00" fill="#000000"> </text>
<polyline fill="none" stroke="#000000" points="301.5128,-947.5 402.2814,-947.5 "/>
<text text-anchor="middle" x="351.8971" y="-930.9" font-family="Times,serif" font-size="14.00" fill="#000000"> </text>
</g>
<!-- 12struct0 -->
<g id="node14" class="node">
<title>12struct0</title>
<polygon fill="#f2f2f2" stroke="#000000" points="51.8792,-630.5 51.8792,-713.7 191.915,-713.7 191.915,-630.5 51.8792,-630.5"/>
<text text-anchor="middle" x="121.8971" y="-697.1" font-family="Times,serif" font-size="14.00" fill="#000000">&lt;&lt;struct&gt;&gt;</text>
<text text-anchor="middle" x="121.8971" y="-680.3" font-family="Times,serif" font-size="14.00" fill="#000000">ClaimedInfo</text>
<polyline fill="none" stroke="#000000" points="51.8792,-672.1 191.915,-672.1 "/>
<text text-anchor="start" x="59.8792" y="-655.5" font-family="Times,serif" font-size="14.00" fill="#000000">joined: bool</text>
<text text-anchor="start" x="59.8792" y="-638.7" font-family="Times,serif" font-size="14.00" fill="#000000">claimedTime: uint256</text>
</g>
<!-- 12struct0&#45;&gt;12 -->
<g id="edge1" class="edge">
<title>12struct0&#45;&gt;12</title>
<path fill="none" stroke="#000000" d="M149.8111,-713.8472C164.5861,-735.4979 183.276,-762.1974 200.8971,-785.4 234.274,-829.3491 274.0899,-877.4107 304.4546,-913.233"/>
<polygon fill="#000000" stroke="#000000" points="304.5861,-913.3877 311.5196,-915.3693 312.3572,-922.5316 305.4237,-920.55 304.5861,-913.3877"/>
</g>
<!-- 12struct1 -->
<g id="node15" class="node">
<title>12struct1</title>
<polygon fill="#f2f2f2" stroke="#000000" points="209.8478,-588.5 209.8478,-755.7 493.9464,-755.7 493.9464,-588.5 209.8478,-588.5"/>
<text text-anchor="middle" x="351.8971" y="-739.1" font-family="Times,serif" font-size="14.00" fill="#000000">&lt;&lt;struct&gt;&gt;</text>
<text text-anchor="middle" x="351.8971" y="-722.3" font-family="Times,serif" font-size="14.00" fill="#000000">TgeInfo</text>
<polyline fill="none" stroke="#000000" points="209.8478,-714.1 493.9464,-714.1 "/>
<text text-anchor="start" x="217.8478" y="-697.5" font-family="Times,serif" font-size="14.00" fill="#000000">allocated: bool</text>
<text text-anchor="start" x="217.8478" y="-680.7" font-family="Times,serif" font-size="14.00" fill="#000000">started: bool</text>
<text text-anchor="start" x="217.8478" y="-663.9" font-family="Times,serif" font-size="14.00" fill="#000000">allocatedAmount: uint256</text>
<text text-anchor="start" x="217.8478" y="-647.1" font-family="Times,serif" font-size="14.00" fill="#000000">claimedCount: uint256</text>
<text text-anchor="start" x="217.8478" y="-630.3" font-family="Times,serif" font-size="14.00" fill="#000000">amount: uint256</text>
<text text-anchor="start" x="217.8478" y="-613.5" font-family="Times,serif" font-size="14.00" fill="#000000">whitelist: address[]</text>
<text text-anchor="start" x="217.8478" y="-596.7" font-family="Times,serif" font-size="14.00" fill="#000000">claimedTime: mapping(address=&gt;ClaimedInfo)</text>
</g>
<!-- 12struct1&#45;&gt;12 -->
<g id="edge2" class="edge">
<title>12struct1&#45;&gt;12</title>
<path fill="none" stroke="#000000" d="M351.8971,-755.7913C351.8971,-805.0993 351.8971,-866.2371 351.8971,-910.2597"/>
<polygon fill="#000000" stroke="#000000" points="351.8972,-910.4831 355.8971,-916.4832 351.8971,-922.4831 347.8971,-916.4831 351.8972,-910.4831"/>
</g>
<!-- 13 -->
<g id="node16" class="node">
<title>13</title>
<polygon fill="#f2f2f2" stroke="#000000" points="3146.9591,-42.5 3146.9591,-184.1 3710.8351,-184.1 3710.8351,-42.5 3146.9591,-42.5"/>
<text text-anchor="middle" x="3428.8971" y="-167.5" font-family="Times,serif" font-size="14.00" fill="#000000">&lt;&lt;Abstract&gt;&gt;</text>
<text text-anchor="middle" x="3428.8971" y="-150.7" font-family="Times,serif" font-size="14.00" fill="#000000">OnApprove</text>
<polyline fill="none" stroke="#000000" points="3146.9591,-142.5 3710.8351,-142.5 "/>
<text text-anchor="middle" x="3428.8971" y="-125.9" font-family="Times,serif" font-size="14.00" fill="#000000"> </text>
<polyline fill="none" stroke="#000000" points="3146.9591,-117.7 3710.8351,-117.7 "/>
<text text-anchor="start" x="3154.9591" y="-101.1" font-family="Times,serif" font-size="14.00" fill="#000000">External:</text>
<text text-anchor="start" x="3154.9591" y="-84.3" font-family="Times,serif" font-size="14.00" fill="#000000"> &#160;&#160;&#160;&lt;&lt;abstract&gt;&gt; onApprove(owner: address, spender: address, amount: uint256, data: bytes): bool</text>
<text text-anchor="start" x="3154.9591" y="-67.5" font-family="Times,serif" font-size="14.00" fill="#000000">Public:</text>
<text text-anchor="start" x="3154.9591" y="-50.7" font-family="Times,serif" font-size="14.00" fill="#000000"> &#160;&#160;&#160;constructor()</text>
</g>
<!-- 13&#45;&gt;8 -->
<g id="edge10" class="edge">
<title>13&#45;&gt;8</title>
<path fill="none" stroke="#000000" d="M3428.8971,-184.1656C3428.8971,-209.2169 3428.8971,-238.2052 3428.8971,-266.4531"/>
<polygon fill="none" stroke="#000000" points="3418.3972,-266.5929 3428.8971,-296.593 3439.3972,-266.593 3418.3972,-266.5929"/>
</g>
<!-- 13&#45;&gt;13 -->
<g id="edge11" class="edge">
<title>13&#45;&gt;13</title>
<path fill="none" stroke="#000000" stroke-dasharray="5,2" d="M3710.8407,-82.307C3722.2378,-90.345 3728.8351,-100.676 3728.8351,-113.3 3728.8351,-122.5708 3725.2771,-130.6049 3718.8731,-137.4024"/>
<polygon fill="#000000" stroke="#000000" points="3716.1517,-135.1254 3710.8407,-144.293 3720.7095,-140.4384 3716.1517,-135.1254"/>
</g>
<!-- 14 -->
<g id="node17" class="node">
<title>14</title>
<polygon fill="#f2f2f2" stroke="#000000" points="2072.2683,-271.5 2072.2683,-513.9 2893.5259,-513.9 2893.5259,-271.5 2072.2683,-271.5"/>
<text text-anchor="middle" x="2482.8971" y="-497.3" font-family="Times,serif" font-size="14.00" fill="#000000">TOS</text>
<polyline fill="none" stroke="#000000" points="2072.2683,-489.1 2893.5259,-489.1 "/>
<text text-anchor="start" x="2080.2683" y="-472.5" font-family="Times,serif" font-size="14.00" fill="#000000">Public:</text>
<text text-anchor="start" x="2080.2683" y="-455.7" font-family="Times,serif" font-size="14.00" fill="#000000"> &#160;&#160;DOMAIN_SEPARATOR: bytes32</text>
<text text-anchor="start" x="2080.2683" y="-438.9" font-family="Times,serif" font-size="14.00" fill="#000000"> &#160;&#160;nonces: mapping(address=&gt;uint256)</text>
<text text-anchor="start" x="2080.2683" y="-422.1" font-family="Times,serif" font-size="14.00" fill="#000000"> &#160;&#160;PERMIT_TYPEHASH: bytes32</text>
<polyline fill="none" stroke="#000000" points="2072.2683,-413.9 2893.5259,-413.9 "/>
<text text-anchor="start" x="2080.2683" y="-397.3" font-family="Times,serif" font-size="14.00" fill="#000000">External:</text>
<text text-anchor="start" x="2080.2683" y="-380.5" font-family="Times,serif" font-size="14.00" fill="#000000"> &#160;&#160;&#160;mint(to: address, amount: uint256): bool</text>
<text text-anchor="start" x="2080.2683" y="-363.7" font-family="Times,serif" font-size="14.00" fill="#000000"> &#160;&#160;&#160;burn(from: address, amount: uint256): bool</text>
<text text-anchor="start" x="2080.2683" y="-346.9" font-family="Times,serif" font-size="14.00" fill="#000000"> &#160;&#160;&#160;permit(owner: address, spender: address, value: uint256, deadline: uint256, v: uint8, r: bytes32, s: bytes32)</text>
<text text-anchor="start" x="2080.2683" y="-330.1" font-family="Times,serif" font-size="14.00" fill="#000000"> &#160;&#160;&#160;verify(owner: address, spender: address, value: uint256, deadline: uint256, _nounce: uint256, sigR: bytes32, sigS: bytes32, sigV: uint8): bool</text>
<text text-anchor="start" x="2080.2683" y="-313.3" font-family="Times,serif" font-size="14.00" fill="#000000">Public:</text>
<text text-anchor="start" x="2080.2683" y="-296.5" font-family="Times,serif" font-size="14.00" fill="#000000"> &#160;&#160;&#160;constructor(name_: string, symbol_: string, version_: string)</text>
<text text-anchor="start" x="2080.2683" y="-279.7" font-family="Times,serif" font-size="14.00" fill="#000000"> &#160;&#160;&#160;hashPermit(owner: address, spender: address, value: uint256, deadline: uint256, _nounce: uint256): bytes32</text>
</g>
<!-- 14&#45;&gt;6 -->
<g id="edge12" class="edge">
<title>14&#45;&gt;6</title>
<path fill="none" stroke="#000000" d="M2413.4168,-514.0299C2408.2348,-523.079 2402.9929,-532.2327 2397.7801,-541.3356"/>
<polygon fill="none" stroke="#000000" points="2388.5824,-536.2678 2382.7858,-567.5192 2406.8059,-546.7036 2388.5824,-536.2678"/>
</g>
<!-- 14&#45;&gt;7 -->
<g id="edge13" class="edge">
<title>14&#45;&gt;7</title>
<path fill="none" stroke="#000000" stroke-dasharray="5,2" d="M2646.61,-514.0299C2662.4831,-525.7937 2678.5948,-537.7343 2694.4843,-549.5102"/>
<polygon fill="none" stroke="#000000" points="2688.4298,-558.0924 2718.7842,-567.5192 2700.9337,-541.2207 2688.4298,-558.0924"/>
</g>
<!-- 15 -->
<g id="node18" class="node">
<title>15</title>
<polygon fill="#f2f2f2" stroke="#000000" points="549.7504,-559.3 549.7504,-784.9 1418.0438,-784.9 1418.0438,-559.3 549.7504,-559.3"/>
<text text-anchor="middle" x="983.8971" y="-768.3" font-family="Times,serif" font-size="14.00" fill="#000000">BaseVault</text>
<polyline fill="none" stroke="#000000" points="549.7504,-760.1 1418.0438,-760.1 "/>
<text text-anchor="middle" x="983.8971" y="-743.5" font-family="Times,serif" font-size="14.00" fill="#000000"> </text>
<polyline fill="none" stroke="#000000" points="549.7504,-735.3 1418.0438,-735.3 "/>
<text text-anchor="start" x="557.7504" y="-718.7" font-family="Times,serif" font-size="14.00" fill="#000000">External:</text>
<text text-anchor="start" x="557.7504" y="-701.9" font-family="Times,serif" font-size="14.00" fill="#000000"> &#160;&#160;&#160;setMaxInputOnceTimeWhitelist(_maxInputOnceTime: uint256)</text>
<text text-anchor="start" x="557.7504" y="-685.1" font-family="Times,serif" font-size="14.00" fill="#000000"> &#160;&#160;&#160;addWhitelist(round: uint256, users: address[])</text>
<text text-anchor="start" x="557.7504" y="-668.3" font-family="Times,serif" font-size="14.00" fill="#000000"> &#160;&#160;&#160;withdraw(to: address)</text>
<text text-anchor="start" x="557.7504" y="-651.5" font-family="Times,serif" font-size="14.00" fill="#000000"> &#160;&#160;&#160;getTgeInfos(round: uint256): (allocated: bool, started: bool, allocatedAmount: uint256, claimedCount: uint256, amount: uint256, whitelist: address[])</text>
<text text-anchor="start" x="557.7504" y="-634.7" font-family="Times,serif" font-size="14.00" fill="#000000"> &#160;&#160;&#160;getWhitelistInfo(round: uint256, user: address): (joined: bool, claimedTime: uint256)</text>
<text text-anchor="start" x="557.7504" y="-617.9" font-family="Times,serif" font-size="14.00" fill="#000000">Public:</text>
<text text-anchor="start" x="557.7504" y="-601.1" font-family="Times,serif" font-size="14.00" fill="#000000"> &#160;&#160;&#160;initializeBase(_totalAllocatedAmount: uint256, _totalTgeCount: uint256, _startTime: uint256, _periodTimesPerCliam: uint256)</text>
<text text-anchor="start" x="557.7504" y="-584.3" font-family="Times,serif" font-size="14.00" fill="#000000"> &#160;&#160;&#160;currentRound(): (round: uint256)</text>
<text text-anchor="start" x="557.7504" y="-567.5" font-family="Times,serif" font-size="14.00" fill="#000000"> &#160;&#160;&#160;availableWithdrawAmount(): (amount: uint256)</text>
</g>
<!-- 15&#45;&gt;5 -->
<g id="edge15" class="edge">
<title>15&#45;&gt;5</title>
<path fill="none" stroke="#000000" d="M1378.1387,-784.9255C1551.6592,-834.5842 1744.8104,-889.8609 1873.2303,-926.6126"/>
<polygon fill="none" stroke="#000000" points="1870.6919,-936.8076 1902.423,-934.967 1876.4699,-916.6181 1870.6919,-936.8076"/>
</g>
<!-- 15&#45;&gt;12 -->
<g id="edge17" class="edge">
<title>15&#45;&gt;12</title>
<path fill="none" stroke="#000000" stroke-dasharray="5,2" d="M691.0684,-784.907C663.7532,-796.7483 636.6689,-809.0036 610.8971,-821.4 540.4368,-855.2919 462.8265,-900.4139 411.1104,-931.6655"/>
<polygon fill="#000000" stroke="#000000" points="409.1381,-928.7681 402.4012,-936.9452 412.767,-934.7541 409.1381,-928.7681"/>
</g>
<!-- 16 -->
<g id="node19" class="node">
<title>16</title>
<polygon fill="#f2f2f2" stroke="#000000" points="619.8941,-821.9 619.8941,-1114.7 949.9001,-1114.7 949.9001,-821.9 619.8941,-821.9"/>
<text text-anchor="middle" x="784.8971" y="-1098.1" font-family="Times,serif" font-size="14.00" fill="#000000">BaseVaultStorage</text>
<polyline fill="none" stroke="#000000" points="619.8941,-1089.9 949.9001,-1089.9 "/>
<text text-anchor="start" x="627.8941" y="-1073.3" font-family="Times,serif" font-size="14.00" fill="#000000">Public:</text>
<text text-anchor="start" x="627.8941" y="-1056.5" font-family="Times,serif" font-size="14.00" fill="#000000"> &#160;&#160;maxInputOnceTime: uint256</text>
<text text-anchor="start" x="627.8941" y="-1039.7" font-family="Times,serif" font-size="14.00" fill="#000000"> &#160;&#160;name: string</text>
<text text-anchor="start" x="627.8941" y="-1022.9" font-family="Times,serif" font-size="14.00" fill="#000000"> &#160;&#160;token: address</text>
<text text-anchor="start" x="627.8941" y="-1006.1" font-family="Times,serif" font-size="14.00" fill="#000000"> &#160;&#160;totalAllocatedAmount: uint256</text>
<text text-anchor="start" x="627.8941" y="-989.3" font-family="Times,serif" font-size="14.00" fill="#000000"> &#160;&#160;totalClaimedAmount: uint256</text>
<text text-anchor="start" x="627.8941" y="-972.5" font-family="Times,serif" font-size="14.00" fill="#000000"> &#160;&#160;startTime: uint256</text>
<text text-anchor="start" x="627.8941" y="-955.7" font-family="Times,serif" font-size="14.00" fill="#000000"> &#160;&#160;endTime: uint256</text>
<text text-anchor="start" x="627.8941" y="-938.9" font-family="Times,serif" font-size="14.00" fill="#000000"> &#160;&#160;periodTimesPerCliam: uint256</text>
<text text-anchor="start" x="627.8941" y="-922.1" font-family="Times,serif" font-size="14.00" fill="#000000"> &#160;&#160;totalTgeCount: uint256</text>
<text text-anchor="start" x="627.8941" y="-905.3" font-family="Times,serif" font-size="14.00" fill="#000000"> &#160;&#160;totalTgeAmount: uint256</text>
<text text-anchor="start" x="627.8941" y="-888.5" font-family="Times,serif" font-size="14.00" fill="#000000"> &#160;&#160;tgeInfos: mapping(uint256=&gt;ClaimVaultLib.TgeInfo)</text>
<polyline fill="none" stroke="#000000" points="619.8941,-880.3 949.9001,-880.3 "/>
<text text-anchor="start" x="627.8941" y="-863.7" font-family="Times,serif" font-size="14.00" fill="#000000">Public:</text>
<text text-anchor="start" x="627.8941" y="-846.9" font-family="Times,serif" font-size="14.00" fill="#000000"> &#160;&#160;&#160;&lt;&lt;modifier&gt;&gt; nonZeroAddress(_addr: address)</text>
<text text-anchor="start" x="627.8941" y="-830.1" font-family="Times,serif" font-size="14.00" fill="#000000"> &#160;&#160;&#160;&lt;&lt;modifier&gt;&gt; nonZero(_value: uint256)</text>
</g>
<!-- 15&#45;&gt;16 -->
<g id="edge14" class="edge">
<title>15&#45;&gt;16</title>
<path fill="none" stroke="#000000" d="M908.096,-784.9255C905.429,-788.8952 902.7379,-792.9008 900.0309,-796.93"/>
<polygon fill="none" stroke="#000000" points="891.2889,-791.1137 883.2744,-821.8711 908.7202,-802.8248 891.2889,-791.1137"/>
</g>
<!-- 20 -->
<g id="node23" class="node">
<title>20</title>
<polygon fill="#f2f2f2" stroke="#000000" points="968.3154,-872.3 968.3154,-1064.3 1475.4788,-1064.3 1475.4788,-872.3 968.3154,-872.3"/>
<text text-anchor="middle" x="1221.8971" y="-1047.7" font-family="Times,serif" font-size="14.00" fill="#000000">VaultEvent</text>
<polyline fill="none" stroke="#000000" points="968.3154,-1039.5 1475.4788,-1039.5 "/>
<text text-anchor="middle" x="1221.8971" y="-1022.9" font-family="Times,serif" font-size="14.00" fill="#000000"> </text>
<polyline fill="none" stroke="#000000" points="968.3154,-1014.7 1475.4788,-1014.7 "/>
<text text-anchor="start" x="976.3154" y="-998.1" font-family="Times,serif" font-size="14.00" fill="#000000">Public:</text>
<text text-anchor="start" x="976.3154" y="-981.3" font-family="Times,serif" font-size="14.00" fill="#000000"> &#160;&#160;&#160;&lt;&lt;event&gt;&gt; SetNewClaimer(newClaimer: address)</text>
<text text-anchor="start" x="976.3154" y="-964.5" font-family="Times,serif" font-size="14.00" fill="#000000"> &#160;&#160;&#160;&lt;&lt;event&gt;&gt; AllocatedAmount(round: uint256, amount: uint256)</text>
<text text-anchor="start" x="976.3154" y="-947.7" font-family="Times,serif" font-size="14.00" fill="#000000"> &#160;&#160;&#160;&lt;&lt;event&gt;&gt; AddedWhitelist(round: uint256, users: address[])</text>
<text text-anchor="start" x="976.3154" y="-930.9" font-family="Times,serif" font-size="14.00" fill="#000000"> &#160;&#160;&#160;&lt;&lt;event&gt;&gt; StartedRound(round: uint256)</text>
<text text-anchor="start" x="976.3154" y="-914.1" font-family="Times,serif" font-size="14.00" fill="#000000"> &#160;&#160;&#160;&lt;&lt;event&gt;&gt; Started()</text>
<text text-anchor="start" x="976.3154" y="-897.3" font-family="Times,serif" font-size="14.00" fill="#000000"> &#160;&#160;&#160;&lt;&lt;event&gt;&gt; Claimed(caller: address, amount: uint256, totalClaimedAmount: uint256)</text>
<text text-anchor="start" x="976.3154" y="-880.5" font-family="Times,serif" font-size="14.00" fill="#000000"> &#160;&#160;&#160;&lt;&lt;event&gt;&gt; Withdrawal(caller: address, amount: uint256)</text>
</g>
<!-- 15&#45;&gt;20 -->
<g id="edge16" class="edge">
<title>15&#45;&gt;20</title>
<path fill="none" stroke="#000000" d="M1074.5536,-784.9255C1091.2616,-805.7192 1108.761,-827.4978 1125.6276,-848.489"/>
<polygon fill="none" stroke="#000000" points="1117.7109,-855.3999 1144.6869,-872.2091 1134.0811,-842.2463 1117.7109,-855.3999"/>
</g>
<!-- 17&#45;&gt;12 -->
<g id="edge20" class="edge">
<title>17&#45;&gt;12</title>
<path fill="none" stroke="#000000" stroke-dasharray="5,2" d="M1203.6372,-521.2371C1200.7164,-521.7708 1197.8027,-522.2919 1194.8971,-522.8 1123.2082,-535.3361 595.1372,-510.2773 540.8971,-558.8 464.7894,-626.8852 545.295,-692.5002 502.8971,-785.4 480.566,-834.3306 441.7114,-880.9454 409.0089,-914.869"/>
<polygon fill="#000000" stroke="#000000" points="406.1904,-912.7454 401.7044,-922.3436 411.1968,-917.6378 406.1904,-912.7454"/>
</g>
<!-- 17&#45;&gt;15 -->
<g id="edge18" class="edge">
<title>17&#45;&gt;15</title>
<path fill="none" stroke="#000000" d="M1329.5276,-522.3804C1310.5028,-530.6215 1291.37,-538.9094 1272.396,-547.1285"/>
<polygon fill="none" stroke="#000000" points="1268.0962,-537.5482 1244.7416,-559.1078 1276.4435,-556.818 1268.0962,-537.5482"/>
</g>
<!-- 19 -->
<g id="node22" class="node">
<title>19</title>
<polygon fill="#f2f2f2" stroke="#000000" points="1435.6939,-576.1 1435.6939,-768.1 1822.1003,-768.1 1822.1003,-576.1 1435.6939,-576.1"/>
<text text-anchor="middle" x="1628.8971" y="-751.5" font-family="Times,serif" font-size="14.00" fill="#000000">VaultClaimStorage</text>
<polyline fill="none" stroke="#000000" points="1435.6939,-743.3 1822.1003,-743.3 "/>
<text text-anchor="start" x="1443.6939" y="-726.7" font-family="Times,serif" font-size="14.00" fill="#000000">Public:</text>
<text text-anchor="start" x="1443.6939" y="-709.9" font-family="Times,serif" font-size="14.00" fill="#000000"> &#160;&#160;claimer: address</text>
<text text-anchor="start" x="1443.6939" y="-693.1" font-family="Times,serif" font-size="14.00" fill="#000000"> &#160;&#160;totalClaims: uint256</text>
<text text-anchor="start" x="1443.6939" y="-676.3" font-family="Times,serif" font-size="14.00" fill="#000000"> &#160;&#160;lastClaimedRound: uint256</text>
<text text-anchor="start" x="1443.6939" y="-659.5" font-family="Times,serif" font-size="14.00" fill="#000000"> &#160;&#160;oneClaimAmountByClaimer: uint256</text>
<text text-anchor="start" x="1443.6939" y="-642.7" font-family="Times,serif" font-size="14.00" fill="#000000"> &#160;&#160;totalClaimedCountByClaimer: uint256</text>
<text text-anchor="start" x="1443.6939" y="-625.9" font-family="Times,serif" font-size="14.00" fill="#000000"> &#160;&#160;claimedTimesOfRoundByCliamer: mapping(uint256=&gt;uint256)</text>
<text text-anchor="start" x="1443.6939" y="-609.1" font-family="Times,serif" font-size="14.00" fill="#000000"> &#160;&#160;startedByClaimer: bool</text>
<polyline fill="none" stroke="#000000" points="1435.6939,-600.9 1822.1003,-600.9 "/>
<text text-anchor="middle" x="1628.8971" y="-584.3" font-family="Times,serif" font-size="14.00" fill="#000000"> </text>
</g>
<!-- 17&#45;&gt;19 -->
<g id="edge19" class="edge">
<title>17&#45;&gt;19</title>
<path fill="none" stroke="#000000" d="M1628.8971,-522.5845C1628.8971,-530.3 1628.8971,-538.0555 1628.8971,-545.7564"/>
<polygon fill="none" stroke="#000000" points="1618.3972,-545.9097 1628.8971,-575.9097 1639.3972,-545.9097 1618.3972,-545.9097"/>
</g>
<!-- 18 -->
<g id="node21" class="node">
<title>18</title>
<polygon fill="#f2f2f2" stroke="#000000" points="1839.6218,-567.7 1839.6218,-776.5 2198.1724,-776.5 2198.1724,-567.7 1839.6218,-567.7"/>
<text text-anchor="middle" x="2018.8971" y="-759.9" font-family="Times,serif" font-size="14.00" fill="#000000">SimpleVault</text>
<polyline fill="none" stroke="#000000" points="1839.6218,-751.7 2198.1724,-751.7 "/>
<text text-anchor="start" x="1847.6218" y="-735.1" font-family="Times,serif" font-size="14.00" fill="#000000">Public:</text>
<text text-anchor="start" x="1847.6218" y="-718.3" font-family="Times,serif" font-size="14.00" fill="#000000"> &#160;&#160;tos: address</text>
<text text-anchor="start" x="1847.6218" y="-701.5" font-family="Times,serif" font-size="14.00" fill="#000000"> &#160;&#160;name: string</text>
<polyline fill="none" stroke="#000000" points="1839.6218,-693.3 2198.1724,-693.3 "/>
<text text-anchor="start" x="1847.6218" y="-676.7" font-family="Times,serif" font-size="14.00" fill="#000000">External:</text>
<text text-anchor="start" x="1847.6218" y="-659.9" font-family="Times,serif" font-size="14.00" fill="#000000"> &#160;&#160;&#160;claimTOS(to: address, amount: uint256)</text>
<text text-anchor="start" x="1847.6218" y="-643.1" font-family="Times,serif" font-size="14.00" fill="#000000"> &#160;&#160;&#160;claimERC20(token: address, to: address, amount: uint256)</text>
<text text-anchor="start" x="1847.6218" y="-626.3" font-family="Times,serif" font-size="14.00" fill="#000000"> &#160;&#160;&#160;balanceTOS(): uint256</text>
<text text-anchor="start" x="1847.6218" y="-609.5" font-family="Times,serif" font-size="14.00" fill="#000000"> &#160;&#160;&#160;balanceERC20(token: address): uint256</text>
<text text-anchor="start" x="1847.6218" y="-592.7" font-family="Times,serif" font-size="14.00" fill="#000000">Public:</text>
<text text-anchor="start" x="1847.6218" y="-575.9" font-family="Times,serif" font-size="14.00" fill="#000000"> &#160;&#160;&#160;constructor(tosAddress: address, _name: string)</text>
</g>
<!-- 18&#45;&gt;5 -->
<g id="edge21" class="edge">
<title>18&#45;&gt;5</title>
<path fill="none" stroke="#000000" d="M2018.8971,-776.529C2018.8971,-800.4197 2018.8971,-825.9755 2018.8971,-850.3883"/>
<polygon fill="none" stroke="#000000" points="2008.3972,-850.4886 2018.8971,-880.4887 2029.3972,-850.4887 2008.3972,-850.4886"/>
</g>
<!-- 21&#45;&gt;12 -->
<g id="edge23" class="edge">
<title>21&#45;&gt;12</title>
<path fill="none" stroke="#000000" stroke-dasharray="5,2" d="M464.1089,-425.5674C285.967,-450.0443 97.6018,-491.2553 42.8971,-558.8 -20.4882,-637.0626 -6.9846,-697.9097 42.8971,-785.4 96.16,-878.8209 217.9484,-929.3884 291.7258,-952.4361"/>
<polygon fill="#000000" stroke="#000000" points="290.7762,-955.8056 301.3623,-955.3755 292.8185,-949.1102 290.7762,-955.8056"/>
</g>
<!-- 21&#45;&gt;15 -->
<g id="edge22" class="edge">
<title>21&#45;&gt;15</title>
<path fill="none" stroke="#000000" d="M884.3289,-497.1356C890.9582,-508.7847 897.7866,-520.7839 904.613,-532.7794"/>
<polygon fill="none" stroke="#000000" points="895.5117,-538.0159 919.4755,-558.8963 913.7633,-527.6293 895.5117,-538.0159"/>
</g>
</g>
</svg>
